<svg width="30" height="30" viewBox="0 0 30 30" fill="none" xmlns="http://www.w3.org/2000/svg">
<g id="apps 1" clip-path="url(#clip0_9325_19079)">
<path id="Vector" d="M9.0001 0.484375H5.4001C4.12706 0.484375 2.90616 0.990088 2.00599 1.89026C1.10581 2.79044 0.600098 4.01134 0.600098 5.28437L0.600098 8.88437C0.600098 10.1574 1.10581 11.3783 2.00599 12.2785C2.90616 13.1787 4.12706 13.6844 5.4001 13.6844H9.0001C10.2731 13.6844 11.494 13.1787 12.3942 12.2785C13.2944 11.3783 13.8001 10.1574 13.8001 8.88437V5.28437C13.8001 4.01134 13.2944 2.79044 12.3942 1.89026C11.494 0.990088 10.2731 0.484375 9.0001 0.484375ZM11.4001 8.88437C11.4001 9.52089 11.1472 10.1313 10.6972 10.5814C10.2471 11.0315 9.63662 11.2844 9.0001 11.2844H5.4001C4.76358 11.2844 4.15313 11.0315 3.70304 10.5814C3.25295 10.1313 3.0001 9.52089 3.0001 8.88437V5.28437C3.0001 4.64786 3.25295 4.03741 3.70304 3.58732C4.15313 3.13723 4.76358 2.88437 5.4001 2.88437H9.0001C9.63662 2.88437 10.2471 3.13723 10.6972 3.58732C11.1472 4.03741 11.4001 4.64786 11.4001 5.28437V8.88437Z" fill="#151515"/>
<path id="Vector_2" d="M24.6002 0.484375H21.0002C19.7272 0.484375 18.5063 0.990088 17.6061 1.89026C16.7059 2.79044 16.2002 4.01134 16.2002 5.28437V8.88437C16.2002 10.1574 16.7059 11.3783 17.6061 12.2785C18.5063 13.1787 19.7272 13.6844 21.0002 13.6844H24.6002C25.8732 13.6844 27.0941 13.1787 27.9943 12.2785C28.8945 11.3783 29.4002 10.1574 29.4002 8.88437V5.28437C29.4002 4.01134 28.8945 2.79044 27.9943 1.89026C27.0941 0.990088 25.8732 0.484375 24.6002 0.484375ZM27.0002 8.88437C27.0002 9.52089 26.7473 10.1313 26.2973 10.5814C25.8472 11.0315 25.2367 11.2844 24.6002 11.2844H21.0002C20.3637 11.2844 19.7532 11.0315 19.3031 10.5814C18.8531 10.1313 18.6002 9.52089 18.6002 8.88437V5.28437C18.6002 4.64786 18.8531 4.03741 19.3031 3.58732C19.7532 3.13723 20.3637 2.88437 21.0002 2.88437H24.6002C25.2367 2.88437 25.8472 3.13723 26.2973 3.58732C26.7473 4.03741 27.0002 4.64786 27.0002 5.28437V8.88437Z" fill="#151515"/>
<path id="Vector_3" d="M9.0001 16.084H5.4001C4.12706 16.084 2.90616 16.5897 2.00599 17.4899C1.10581 18.39 0.600098 19.6109 0.600098 20.884L0.600098 24.484C0.600098 25.757 1.10581 26.9779 2.00599 27.8781C2.90616 28.7783 4.12706 29.284 5.4001 29.284H9.0001C10.2731 29.284 11.494 28.7783 12.3942 27.8781C13.2944 26.9779 13.8001 25.757 13.8001 24.484V20.884C13.8001 19.6109 13.2944 18.39 12.3942 17.4899C11.494 16.5897 10.2731 16.084 9.0001 16.084ZM11.4001 24.484C11.4001 25.1205 11.1472 25.731 10.6972 26.181C10.2471 26.6311 9.63662 26.884 9.0001 26.884H5.4001C4.76358 26.884 4.15313 26.6311 3.70304 26.181C3.25295 25.731 3.0001 25.1205 3.0001 24.484V20.884C3.0001 20.2475 3.25295 19.637 3.70304 19.1869C4.15313 18.7368 4.76358 18.484 5.4001 18.484H9.0001C9.63662 18.484 10.2471 18.7368 10.6972 19.1869C11.1472 19.637 11.4001 20.2475 11.4001 20.884V24.484Z" fill="#151515"/>
<path id="Vector_4" d="M24.6002 16.084H21.0002C19.7272 16.084 18.5063 16.5897 17.6061 17.4899C16.7059 18.39 16.2002 19.6109 16.2002 20.884V24.484C16.2002 25.757 16.7059 26.9779 17.6061 27.8781C18.5063 28.7783 19.7272 29.284 21.0002 29.284H24.6002C25.8732 29.284 27.0941 28.7783 27.9943 27.8781C28.8945 26.9779 29.4002 25.757 29.4002 24.484V20.884C29.4002 19.6109 28.8945 18.39 27.9943 17.4899C27.0941 16.5897 25.8732 16.084 24.6002 16.084ZM27.0002 24.484C27.0002 25.1205 26.7473 25.731 26.2973 26.181C25.8472 26.6311 25.2367 26.884 24.6002 26.884H21.0002C20.3637 26.884 19.7532 26.6311 19.3031 26.181C18.8531 25.731 18.6002 25.1205 18.6002 24.484V20.884C18.6002 20.2475 18.8531 19.637 19.3031 19.1869C19.7532 18.7368 20.3637 18.484 21.0002 18.484H24.6002C25.2367 18.484 25.8472 18.7368 26.2973 19.1869C26.7473 19.637 27.0002 20.2475 27.0002 20.884V24.484Z" fill="#151515"/>
</g>
<defs>
<clipPath id="clip0_9325_19079">
<rect width="28.8" height="28.8" fill="white" transform="translate(0.600098 0.484375)"/>
</clipPath>
</defs>
</svg>
