<svg width="32" height="33" viewBox="0 0 32 33" fill="none" xmlns="http://www.w3.org/2000/svg">
<g id="akar-icons:arrow-up">
<g id="Vector">
<path d="M25.7074 14.8505C25.6145 14.9435 25.5043 15.0172 25.3829 15.0676C25.2615 15.1179 25.1313 15.1438 24.9999 15.1438C24.8685 15.1438 24.7384 15.1179 24.617 15.0676C24.4956 15.0172 24.3853 14.9435 24.2925 14.8505L17.0002 7.557V27.1426C17.0002 27.4078 16.8948 27.6622 16.7073 27.8497C16.5198 28.0372 16.2654 28.1426 16.0002 28.1426C15.735 28.1426 15.4807 28.0372 15.2931 27.8497C15.1056 27.6622 15.0003 27.4078 15.0003 27.1426V7.557L7.708 14.8505C7.52037 15.0381 7.26588 15.1436 7.00052 15.1436C6.73517 15.1436 6.48068 15.0381 6.29305 14.8505C6.10541 14.6629 6 14.4084 6 14.143C6 13.8777 6.10541 13.6232 6.29305 13.4356L15.2928 4.43586C15.3856 4.34288 15.4959 4.26913 15.6173 4.2188C15.7387 4.16848 15.8688 4.14258 16.0002 4.14258C16.1316 4.14258 16.2618 4.16848 16.3832 4.2188C16.5046 4.26913 16.6148 4.34288 16.7077 4.43586L25.7074 13.4356C25.8004 13.5284 25.8741 13.6387 25.9245 13.7601C25.9748 13.8815 26.0007 14.0116 26.0007 14.143C26.0007 14.2744 25.9748 14.4046 25.9245 14.526C25.8741 14.6474 25.8004 14.7576 25.7074 14.8505Z" fill="#1C1D21"/>
<path fill-rule="evenodd" clip-rule="evenodd" d="M8.76524 17.8931H23.3591C23.5621 17.8931 23.7567 17.9985 23.9003 18.186C24.0438 18.3735 24.1244 18.6279 24.1244 18.8931C24.1244 19.1583 24.0438 19.4126 23.9003 19.6002C23.7567 19.7877 23.5621 19.893 23.3591 19.893H8.76524C8.56227 19.893 8.36761 19.7877 8.22409 19.6002C8.08056 19.4126 7.99993 19.1583 7.99993 18.8931C7.99993 18.6279 8.08056 18.3735 8.22409 18.186C8.36761 17.9985 8.56227 17.8931 8.76524 17.8931Z" fill="#1C1D21"/>
</g>
</g>
</svg>
