<svg width="274" height="226" viewBox="0 0 274 226" fill="none" xmlns="http://www.w3.org/2000/svg">
<path fill-rule="evenodd" clip-rule="evenodd" d="M226.742 4.02058C190.163 4.59668 39.4516 4.91003 1.75487 4.43088C-0.483501 4.40278 -0.653522 0.587856 1.66353 0.587856C40.5223 0.63563 174.854 -0.104872 226.669 1.00939C229.163 1.05998 228.486 3.99248 226.742 4.02058Z" fill="#1C1D21"/>
<path fill-rule="evenodd" clip-rule="evenodd" d="M181.855 113.58C179.331 114.669 176.65 115.349 173.912 115.593C174.174 118.811 174.14 122.046 173.808 125.258C173.772 125.431 173.675 125.586 173.536 125.695C173.397 125.804 173.223 125.861 173.046 125.854C172.869 125.848 172.7 125.779 172.569 125.66C172.438 125.541 172.353 125.38 172.33 125.204C172.067 123.008 172.681 120.629 172.238 115.701C168.952 115.79 167.412 114.771 164.524 114.379C157.344 113.399 150.442 110.95 144.25 107.185C144.066 107.044 143.944 106.836 143.913 106.606C143.881 106.377 143.941 106.144 144.08 105.958C150.433 98.1992 155.319 89.3469 158.498 79.8355C158.873 78.7606 160.116 77.3161 160.122 79.1666C160.137 83.9103 159.584 88.6512 159.584 93.402C159.584 102.024 159.813 111.247 168.213 113.414C173.364 114.739 178.158 113.058 181.346 112.207C182.104 111.997 182.666 113.188 181.855 113.58Z" fill="#1C1D21"/>
<path fill-rule="evenodd" clip-rule="evenodd" d="M169.697 95.1353C168.96 96.5615 171.47 96.3929 172.975 96.4646C173.165 96.4804 173.343 96.563 173.478 96.6978C173.613 96.8325 173.696 97.0107 173.712 97.2007C173.728 97.3906 173.676 97.5801 173.565 97.7355C173.455 97.8909 173.293 98.0022 173.108 98.0496C172.113 98.1834 171.102 98.1262 170.128 97.881C168.389 97.5198 167.061 96.8791 168.008 94.9302C168.62 93.6147 169.316 92.3395 170.09 91.1125C170.185 90.9638 170.331 90.8549 170.5 90.8059C170.67 90.7569 170.851 90.7713 171.011 90.8463C171.171 90.9213 171.298 91.0518 171.368 91.2135C171.439 91.3753 171.448 91.5571 171.394 91.7251C170.915 92.9032 170.348 94.0432 169.697 95.1353Z" fill="#1C1D21"/>
<path fill-rule="evenodd" clip-rule="evenodd" d="M179.228 89.6384C179.245 90.5405 179.313 91.9077 177.983 91.9429C176.913 91.9724 176.612 91.0253 176.618 89.7593C176.623 87.4788 179.173 86.8436 179.228 89.6384Z" fill="#1C1D21"/>
<path fill-rule="evenodd" clip-rule="evenodd" d="M166.693 89.5828C166.671 90.4456 166.304 91.2592 165.308 91.2184C164.476 91.1847 164.176 90.0606 164.2 89.3201C164.235 88.2269 164.58 87.6691 165.271 87.5173C166.332 87.2841 166.722 88.5009 166.693 89.5828Z" fill="#1C1D21"/>
<path fill-rule="evenodd" clip-rule="evenodd" d="M165.732 83.1468C165.175 83.0825 164.612 83.175 164.105 83.4138C163.598 83.6527 163.168 84.0283 162.863 84.4985C162.093 85.6367 161.269 84.7023 161.562 84.0278C161.937 83.2078 162.565 82.5297 163.354 82.0932C164.143 81.6567 165.052 81.4847 165.946 81.6026C166.145 81.6366 166.324 81.747 166.444 81.9104C166.564 82.0738 166.615 82.2775 166.587 82.4782C166.559 82.6789 166.455 82.8609 166.295 82.9857C166.135 83.1105 165.933 83.1683 165.732 83.1468Z" fill="#1C1D21"/>
<path fill-rule="evenodd" clip-rule="evenodd" d="M177.179 82.9528C177.003 82.9517 176.834 82.8882 176.701 82.7736C176.568 82.6591 176.48 82.501 176.453 82.3276C176.426 82.1542 176.462 81.9768 176.553 81.8272C176.645 81.6776 176.787 81.5656 176.954 81.5111C178.026 81.2812 179.146 81.447 180.106 81.978C181.065 82.509 181.8 83.3693 182.175 84.4001C182.407 85.2052 181.332 85.8656 180.925 84.9621C180.602 84.2671 180.062 83.6956 179.387 83.3334C178.711 82.9711 177.937 82.8375 177.179 82.9528Z" fill="#1C1D21"/>
<path fill-rule="evenodd" clip-rule="evenodd" d="M170.484 102.691C171.088 104.052 172.161 105.151 173.506 105.788C174.852 106.425 176.381 106.558 177.816 106.163C179.297 105.686 180.541 104.664 181.297 103.305C182.053 101.945 182.266 100.35 181.891 98.8399C181.72 98.1374 181.09 97.8929 180.334 98.4887C177.171 100.981 174.83 101.371 171.093 101.432C170.486 101.442 170.13 101.986 170.484 102.691Z" fill="#1C1D21"/>
<path fill-rule="evenodd" clip-rule="evenodd" d="M68.2719 129.751C68.6063 130.385 67.6705 131.065 67.1478 130.594C64.1226 127.856 58.5836 123.99 57.0211 120.337C54.9134 115.419 56.0642 109.26 51.8937 105.281C51.7434 105.152 51.6483 104.971 51.6282 104.774C51.6082 104.577 51.6646 104.38 51.7859 104.224C51.9071 104.068 52.0839 103.964 52.2795 103.934C52.4752 103.905 52.6746 103.952 52.8366 104.065C57.4454 107.307 56.5714 113.654 58.7058 118.257C60.8697 122.918 65.9001 125.267 68.2719 129.751Z" fill="#1C1D21"/>
<path fill-rule="evenodd" clip-rule="evenodd" d="M37.4468 122.575C33.1476 121.722 29.1264 119.818 25.7421 117.033C24.6559 116.076 25.9571 115.304 26.7496 115.84C30.1153 118.218 33.9673 119.818 38.0271 120.526C41.9897 121.112 46.0238 121.008 49.951 120.22C50.9192 120.09 50.8981 121.507 50.2321 121.906C47.2026 123.725 40.8472 123.323 37.4468 122.575Z" fill="#1C1D21"/>
<path fill-rule="evenodd" clip-rule="evenodd" d="M19.5805 120.385C18.9791 119.726 19.9908 118.85 20.6512 119.328C25.1606 122.788 30.3383 125.276 35.8574 126.635C40.1684 127.618 38.9726 129.636 35.1029 128.838C29.1737 127.708 23.7463 124.753 19.5805 120.385Z" fill="#1C1D21"/>
<path fill-rule="evenodd" clip-rule="evenodd" d="M36.332 135.783C31.2103 135.486 24.1172 133.126 20.2728 129.756C20.1376 129.633 20.0509 129.465 20.0283 129.284C20.0058 129.102 20.0488 128.919 20.1497 128.766C20.2506 128.613 20.4027 128.502 20.5785 128.451C20.7544 128.401 20.9425 128.415 21.1089 128.491C26.9528 131.355 30.0693 132.809 36.6004 133.62C40.3914 134.092 40.2804 136.012 36.332 135.783Z" fill="#1C1D21"/>
<path fill-rule="evenodd" clip-rule="evenodd" d="M58.9671 142.338C59.9971 143.04 58.8266 144.77 57.777 144.149C52.238 140.888 45.9304 142.884 39.9136 142.875C34.0469 142.974 28.2997 141.211 23.4975 137.84C22.8048 137.321 23.5678 136.284 24.2998 136.62C29.7982 139.397 35.9054 140.75 42.062 140.555C47.7486 140.21 53.9115 138.895 58.9671 142.338Z" fill="#1C1D21"/>
<path fill-rule="evenodd" clip-rule="evenodd" d="M272.137 225.421C215.897 226.105 55.7672 224.696 21.5636 224.297C19.3603 224.272 17.6124 221.785 21.5004 221.768C65.4808 221.542 206.641 221.595 272.056 222.198C274.631 222.215 274.638 225.39 272.137 225.421Z" fill="#18C554"/>
<path fill-rule="evenodd" clip-rule="evenodd" d="M163.767 123.758C151.402 125.725 127.717 138.946 114.819 156.003C127.044 154.152 163.099 153.836 173.461 155.051C169.562 150.304 165.245 145.916 160.562 141.942C162.36 139.88 164.052 138.277 165.532 136.866C162.571 135.04 157.704 132.125 155.555 131.122C157.989 128.349 160.746 125.876 163.767 123.758Z" fill="#18C554"/>
<path fill-rule="evenodd" clip-rule="evenodd" d="M190.801 137.497C192.387 139.077 193.739 140.875 194.817 142.837C190.482 145.321 182.075 149.973 177.001 155.365C181.846 156 185.011 158.351 186.697 165.482C187.422 168.541 188.422 173.449 189.414 178.958C198.594 176.952 207.926 175.718 217.312 175.27C215.665 171.053 213.463 167.074 210.765 163.439C210.186 162.673 211.26 161.701 211.899 162.444C215.158 166.184 217.68 170.508 219.331 175.186C223.535 174.937 227.752 174.997 231.948 175.364C232.903 175.472 232.914 176.901 231.925 176.877C217.756 176.416 203.585 177.751 189.752 180.851C191.164 188.905 192.493 197.905 192.91 204.207C214.69 203.995 250.023 214.757 255.499 201.775C267.763 172.701 230.516 126.814 204.014 122.797C206.251 125.893 207.817 129.422 208.613 133.158C205.71 134.166 194.609 136.809 190.801 137.497Z" fill="#18C554"/>
<path fill-rule="evenodd" clip-rule="evenodd" d="M174.5 145.748C170.045 134.632 170.166 128.715 168.896 123.266C168.867 123.078 168.766 122.909 168.616 122.793C168.465 122.676 168.275 122.623 168.086 122.642C167.897 122.662 167.722 122.754 167.599 122.898C167.475 123.043 167.412 123.23 167.422 123.42C167.377 129.997 170.728 140.953 173.45 147.252C173.536 147.404 173.657 147.534 173.803 147.631C173.949 147.729 174.115 147.79 174.289 147.81C174.463 147.831 174.64 147.81 174.804 147.75C174.969 147.689 175.117 147.591 175.236 147.463C184.05 135.223 188.454 130.801 198.561 122.95C198.718 122.839 198.826 122.671 198.862 122.482C198.898 122.293 198.86 122.097 198.754 121.935C198.649 121.774 198.485 121.66 198.298 121.617C198.11 121.573 197.913 121.605 197.747 121.704C188.368 127.964 180.44 136.163 174.5 145.748Z" fill="#18C554"/>
<path fill-rule="evenodd" clip-rule="evenodd" d="M102.835 157.271C94.1654 151.985 79.4692 138.981 73.444 130.754C67.389 136.93 62.0024 143.728 57.3735 151.034C68.342 167.21 85.7121 184.66 96.5976 189.73C95.333 184.337 95.0113 169.43 95.333 164.672C95.6548 159.914 99.2407 158.012 102.835 157.271Z" fill="#18C554"/>
<path fill-rule="evenodd" clip-rule="evenodd" d="M53.1561 157.025C55.8455 156.913 54.4629 155.027 53.3163 155.005C38.0004 154.704 21.5857 154.33 10.0384 154.51C10.9307 87.7848 10.3967 45.683 10.762 8.08603C10.7719 7.08979 9.27823 7.24295 9.23327 8.19141C7.77475 38.7571 8.67122 121.069 7.54712 154.282C7.50778 155.421 7.58646 156.147 10.0482 156.257C16.9432 156.566 23.6625 156.578 30.5968 156.698C36.9691 156.809 46.9806 157.284 53.1561 157.025Z" fill="#18C554"/>
<path fill-rule="evenodd" clip-rule="evenodd" d="M220.954 90.7957C221.63 77.0957 221.419 63.2145 221.481 49.485C221.518 41.3689 221.886 19.5783 221.794 8.88383C221.779 7.03188 219.869 8.08712 219.85 9.02434C219.48 27.1828 218.523 72.5234 219.217 90.8154C219.277 92.3554 220.885 92.3329 220.954 90.7957Z" fill="#18C554"/>
<path fill-rule="evenodd" clip-rule="evenodd" d="M32.2421 48.9263C32.2421 44.472 32.28 40.0206 32.2421 35.5663C52.3045 35.4511 72.3795 35.3373 92.4391 34.9748C92.456 38.8726 92.4391 42.7704 92.4391 46.6683C73.2774 47.1586 53.6829 47.8809 34.4636 48.2251C33.2257 48.2476 33.4266 50.0968 34.6238 50.1122C54.03 50.3469 74.0319 49.109 93.4986 48.6045C93.7561 48.5778 93.9933 48.4524 94.1605 48.2546C94.3276 48.0569 94.4117 47.8021 94.395 47.5436C94.395 42.9924 94.3796 38.4398 94.4105 33.8886C94.3831 33.6291 94.2563 33.3902 94.0567 33.222C93.8571 33.0539 93.6002 32.9695 93.3398 32.9865C72.6128 32.9992 51.8717 33.2816 31.1447 33.5584C30.8796 33.5858 30.6356 33.7149 30.4637 33.9185C30.2918 34.1221 30.2055 34.3843 30.2229 34.6502C30.3381 39.4557 30.5826 44.25 30.7484 49.0528C30.7723 50.0293 32.2407 49.8916 32.2421 48.9263Z" fill="#18C554"/>
<path fill-rule="evenodd" clip-rule="evenodd" d="M31.0731 81.0425C52.0263 80.2247 73.5992 80.1292 94.4246 78.6945C94.5771 78.698 94.7284 78.6676 94.8676 78.6053C95.0068 78.5431 95.1304 78.4506 95.2295 78.3346C95.3285 78.2186 95.4004 78.0821 95.4401 77.9348C95.4798 77.7876 95.4861 77.6333 95.4588 77.4833C95.0906 74.5129 94.7211 71.5424 94.3347 68.5748C94.1731 67.3425 92.3239 67.764 92.4588 68.9739C92.7399 71.5523 93.0518 74.1293 93.3581 76.7021C73.0147 77.5606 52.4914 78.1409 32.2351 78.7901C32.2351 74.7616 32.214 70.7275 32.3278 66.706C52.8076 66.4938 72.936 66.1622 93.6405 66.3308C93.8403 66.3341 94.0334 66.2597 94.1793 66.1233C94.3252 65.9868 94.4124 65.7991 94.4224 65.5996C94.4324 65.4001 94.3645 65.2045 94.2331 65.0541C94.1016 64.9037 93.9169 64.8103 93.7178 64.7936C72.9332 63.8367 52.0614 64.2583 31.1897 64.3004C31.0279 64.2917 30.866 64.3151 30.7133 64.3692C30.5606 64.4234 30.4202 64.5072 30.3 64.6159C30.1798 64.7245 30.0824 64.8559 30.0132 65.0024C29.944 65.1489 29.9045 65.3076 29.897 65.4695C30.0698 70.2652 30.0052 75.0777 30.022 79.879C30.0112 80.1717 30.1149 80.457 30.3112 80.6743C30.5075 80.8915 30.7808 81.0237 31.0731 81.0425Z" fill="#18C554"/>
<path fill-rule="evenodd" clip-rule="evenodd" d="M92.7 109.182C82.6393 109.315 69.84 109.116 59.5194 109.603C58.6552 109.644 58.6945 111.406 59.5418 111.42C68.8339 111.579 82.8965 111.119 93.6386 111.346C94.826 111.371 94.8808 110.222 94.7417 109.367C94.048 105.174 94.0105 100.898 94.6307 96.693C94.6593 96.5414 94.6535 96.3853 94.6139 96.2361C94.5742 96.087 94.5017 95.9487 94.4015 95.8313C94.3014 95.7139 94.1762 95.6204 94.0352 95.5577C93.8942 95.4951 93.7409 95.4648 93.5867 95.4692C73.1449 95.9525 52.6975 96.7085 32.2571 97.0359C31.9823 97.0546 31.7254 97.1791 31.5405 97.3832C31.3555 97.5873 31.2568 97.8552 31.2651 98.1305C31.2285 102.554 31.237 106.983 31.2061 111.4C31.2252 111.691 31.3567 111.964 31.5727 112.159C31.7888 112.355 32.0724 112.459 32.3639 112.45C38.2654 112.234 42.9122 112.266 48.8151 111.902C49.7987 111.842 49.7158 110.067 48.7406 110.064C43.2072 110.049 38.9399 110.109 33.4079 110.224C33.3868 106.513 33.3826 102.803 33.3573 99.0916C53.06 98.389 72.7781 98.0799 92.485 97.5291C92.024 101.405 92.0963 105.326 92.7 109.182Z" fill="#18C554"/>
<path fill-rule="evenodd" clip-rule="evenodd" d="M140.467 122.282C141.398 122.503 141.651 121.009 140.748 120.745C130.909 117.61 122.655 110.804 117.704 101.741C106.279 81.3356 113.348 54.5947 131.91 41.0296C148.35 29.0143 183.667 29.2588 195.054 48.8983C195.742 50.0856 197.531 49.4364 196.958 48.1732C188.055 28.5506 151.921 25.7404 134.201 36.5599C113.336 49.3044 103.659 76.8673 113.995 99.4575C119.194 110.822 128.85 119.531 140.467 122.282Z" fill="#18C554"/>
<path fill-rule="evenodd" clip-rule="evenodd" d="M220.791 126.393C221.148 123.363 220.831 115.292 220.843 110.57C220.843 108.875 219.253 109.498 219.195 110.207C218.857 115.598 218.843 121.004 219.153 126.396C219.216 127.201 220.698 127.188 220.791 126.393Z" fill="#18C554"/>
<path fill-rule="evenodd" clip-rule="evenodd" d="M225.829 209.498C217.442 208.514 200.049 207.436 188.755 207.249C188.755 200.765 182.553 163.69 178.606 160.589C174.826 157.619 103.119 157.065 100.159 162.697C96.2666 170.11 102.699 216.038 106.251 217.251C112.031 219.218 221.878 218.891 226.671 218.516C229.176 218.326 229.533 209.929 225.829 209.498ZM122.294 165.013C118.129 165.448 114.144 166.024 109.99 166.633C106.395 167.16 106.14 167.913 105.75 171.364C105.255 175.461 105.017 179.586 105.039 183.713C105.039 184.592 103.762 184.822 103.645 183.898C103.107 179.161 103.143 174.377 103.752 169.65C104.154 166.547 105.297 165.153 108.389 164.522C112.959 163.599 117.625 163.233 122.284 163.432C122.473 163.459 122.646 163.554 122.772 163.698C122.897 163.842 122.967 164.027 122.968 164.218C122.969 164.409 122.902 164.594 122.778 164.74C122.654 164.886 122.483 164.983 122.294 165.013ZM140.653 196.388C137.681 196.95 134.462 195.342 133.303 190.809C132.295 186.875 134.146 183.906 137.414 183.07C145.241 181.069 148.1 194.964 140.653 196.388Z" fill="#1C1D21"/>
<path fill-rule="evenodd" clip-rule="evenodd" d="M221.897 102.581C208.534 89.3402 216.5 70.777 207.954 61.7941C206.337 60.0519 204.155 58.9402 201.796 58.6571C199.436 58.374 197.053 58.938 195.07 60.2484C188.487 49.5428 175.06 46.9517 163.628 50.5137C151.168 54.3961 146.704 69.6066 156.706 74.502C161.947 77.0678 180.347 77.2856 186.1 76.1713C186.56 80.9346 188.342 85.4746 191.244 89.2797C191.542 89.6381 191.958 90.1341 192.452 89.7013C192.987 89.2193 193.616 88.8537 194.3 88.6275C194.983 88.4014 195.706 88.3197 196.423 88.3876C197.14 88.4555 197.835 88.6715 198.464 89.0219C199.093 89.3724 199.642 89.8497 200.077 90.4235C200.476 91.0144 200.756 91.6784 200.898 92.3775C201.04 93.0765 201.043 93.7968 200.907 94.497C200.77 95.1972 200.496 95.8635 200.101 96.4577C199.707 97.0518 199.198 97.5621 198.605 97.9592C196.887 99.096 195.662 98.9301 193.737 98.8332C193.134 98.8037 193.021 99.3081 192.981 99.769C192.386 106.463 191.727 114.101 192.749 120.759C192.775 120.944 192.873 121.111 193.02 121.225C193.168 121.339 193.354 121.391 193.54 121.37C193.725 121.349 193.895 121.256 194.013 121.111C194.131 120.967 194.188 120.782 194.172 120.596C194.186 118.792 194.119 116.987 194.06 115.182C203.467 116.234 215.378 110.732 221.925 104.441C222.962 103.456 222.22 102.901 221.897 102.581ZM171.284 56.7792C168.99 56.7379 166.721 57.2534 164.67 58.2812C162.392 59.3744 158.526 62.0919 158.786 64.9415C158.863 65.7959 157.635 66.3186 157.316 65.4375C155.777 61.1913 160.06 57.8738 162.915 56.3155C165.459 54.9276 168.308 54.1959 171.205 54.1867C174.912 54.1909 173.382 56.8677 171.284 56.7792Z" fill="#1C1D21"/>
</svg>
